HIERARCHY
ROOT hip
{
  OFFSET 0.00112043 5.09927 -9.65472
  CHANNELS 6 Xposition Yposition Zposition Zrotation Xrotation Yrotation
  JOINT abdomen
  {
    OFFSET 0 -1.186 -1.5018
    CHANNELS 3 Zrotation Xrotation Yrotation
    JOINT abdomen2
    {
      OFFSET 0 9.964 0.2134
      CHANNELS 3 Zrotation Xrotation Yrotation
      JOINT chest
      {
        OFFSET 0 13.134 -3.2573
        CHANNELS 3 Zrotation Xrotation Yrotation
        JOINT neck
        {
          OFFSET 0 20.686 -1.6905
          CHANNELS 3 Zrotation Xrotation Yrotation
          JOINT head
          {
            OFFSET 0 7.238 -0.1237
            CHANNELS 3 Zrotation Xrotation Yrotation
            End Site
            {
              OFFSET 0 0 0
            }
          }
        }
        JOINT lCollar
        {
          OFFSET 1.7069 20.075 5.0056
          CHANNELS 3 Zrotation Xrotation Yrotation
          JOINT lShldr
          {
            OFFSET 13.6458 -0.047 -4.849
            CHANNELS 3 Zrotation Xrotation Yrotation
            JOINT lForeArm
            {
              OFFSET 28.3255 -0.9759 2.2888
              CHANNELS 3 Zrotation Xrotation Yrotation
              JOINT lHand
              {
                OFFSET 22.1583 -0.53 10.8316
                CHANNELS 3 Zrotation Xrotation Yrotation
                JOINT lThumb1
                {
                  OFFSET 0.786 0.112 2.5817
                  CHANNELS 3 Zrotation Xrotation Yrotation
                  JOINT lThumb2
                  {
                    OFFSET 0.3601 -0.878 4.2331
                    CHANNELS 3 Zrotation Xrotation Yrotation
                    JOINT lThumb2_End
                    {
                      OFFSET 1.8127 -1.216 2.2227
                      CHANNELS 3 Zrotation Xrotation Yrotation
                      End Site
                      {
                        OFFSET 0.0181 -0.0122 0.0222
                      }
                    }
                  }
                }
                JOINT lCarpal1
                {
                  OFFSET 0.9571 1.114 1.7695
                  CHANNELS 3 Zrotation Xrotation Yrotation
                  JOINT lIndex1
                  {
                    OFFSET 4.1246 0.487 4.1451
                    CHANNELS 3 Zrotation Xrotation Yrotation
                    JOINT lIndex2
                    {
                      OFFSET 3.4052 -1.454 2.7682
                      CHANNELS 3 Zrotation Xrotation Yrotation
                      JOINT lIndex2_End
                      {
                        OFFSET 1.4531 -1.795 1.2713
                        CHANNELS 3 Zrotation Xrotation Yrotation
                        End Site
                        {
                          OFFSET 0.0145 -0.0179 0.0127
                        }
                      }
                    }
                  }
                  JOINT lMid1
                  {
                    OFFSET 5.6954 0.21 2.1184
                    CHANNELS 3 Zrotation Xrotation Yrotation
                    JOINT lMid2
                    {
                      OFFSET 3.9766 -1.54 2.3863
                      CHANNELS 3 Zrotation Xrotation Yrotation
                      JOINT lMid2_End
                      {
                        OFFSET 1.4042 -1.926 1.125
                        CHANNELS 3 Zrotation Xrotation Yrotation
                        End Site
                        {
                          OFFSET 0.014 -0.0193 0.0113
                        }
                      }
                    }
                  }
                }
                JOINT lCarpal2
                {
                  OFFSET 2.0956 0.66 -0.3894
                  CHANNELS 3 Zrotation Xrotation Yrotation
                  JOINT lRing1
                  {
                    OFFSET 5.0395 -0.09 2.4971
                    CHANNELS 3 Zrotation Xrotation Yrotation
                    JOINT lRing2
                    {
                      OFFSET 3.7921 -1.552 1.4806
                      CHANNELS 3 Zrotation Xrotation Yrotation
                      JOINT lRing2_End
                      {
                        OFFSET 1.4655 -1.808 0.9609
                        CHANNELS 3 Zrotation Xrotation Yrotation
                        End Site
                        {
                          OFFSET 0.0147 -0.0181 0.0096
                        }
                      }
                    }
                  }
                  JOINT lPinky1
                  {
                    OFFSET 4.9141 -1.269 0.3591
                    CHANNELS 3 Zrotation Xrotation Yrotation
                    JOINT lPinky2
                    {
                      OFFSET 3.1477 -1.685 0.8462
                      CHANNELS 3 Zrotation Xrotation Yrotation
                      JOINT lPinky2_End
                      {
                        OFFSET 0.8055 -1.585 0.7955
                        CHANNELS 3 Zrotation Xrotation Yrotation
                        End Site
                        {
                          OFFSET 0.0081 -0.0158 0.008
                        }
                      }
                    }
                  }
                }
              }
            }
          }
        }
        JOINT rCollar
        {
          OFFSET -1.7069 20.075 5.0056
          CHANNELS 3 Zrotation Xrotation Yrotation
          JOINT rShldr
          {
            OFFSET -13.6458 -0.047 -4.849
            CHANNELS 3 Zrotation Xrotation Yrotation
            JOINT rForeArm
            {
              OFFSET -28.3255 -0.9759 2.2888
              CHANNELS 3 Zrotation Xrotation Yrotation
              JOINT rHand
              {
                OFFSET -22.1583 -0.53 10.8316
                CHANNELS 3 Zrotation Xrotation Yrotation
                JOINT rThumb1
                {
                  OFFSET -0.786 0.112 2.5817
                  CHANNELS 3 Zrotation Xrotation Yrotation
                  JOINT rThumb2
                  {
                    OFFSET -0.3601 -0.878 4.2331
                    CHANNELS 3 Zrotation Xrotation Yrotation
                    JOINT rThumb2_End
                    {
                      OFFSET -1.8127 -1.216 2.2227
                      CHANNELS 3 Zrotation Xrotation Yrotation
                      End Site
                      {
                        OFFSET -0.0181 -0.0122 0.0222
                      }
                    }
                  }
                }
                JOINT rCarpal1
                {
                  OFFSET -0.9571 1.114 1.7695
                  CHANNELS 3 Zrotation Xrotation Yrotation
                  JOINT rIndex1
                  {
                    OFFSET -4.1246 0.487 4.1451
                    CHANNELS 3 Zrotation Xrotation Yrotation
                    JOINT rIndex2
                    {
                      OFFSET -3.4052 -1.454 2.7682
                      CHANNELS 3 Zrotation Xrotation Yrotation
                      JOINT rIndex2_End
                      {
                        OFFSET -1.4531 -1.795 1.2713
                        CHANNELS 3 Zrotation Xrotation Yrotation
                        End Site
                        {
                          OFFSET -0.0145 -0.018 0.0127
                        }
                      }
                    }
                  }
                  JOINT rMid1
                  {
                    OFFSET -5.6954 0.21 2.1184
                    CHANNELS 3 Zrotation Xrotation Yrotation
                    JOINT rMid2
                    {
                      OFFSET -3.9766 -1.54 2.3863
                      CHANNELS 3 Zrotation Xrotation Yrotation
                      JOINT rMid2_End
                      {
                        OFFSET -1.4042 -1.926 1.125
                        CHANNELS 3 Zrotation Xrotation Yrotation
                        End Site
                        {
                          OFFSET -0.014 -0.0193 0.0113
                        }
                      }
                    }
                  }
                }
                JOINT rCarpal2
                {
                  OFFSET -2.0956 0.66 -0.3894
                  CHANNELS 3 Zrotation Xrotation Yrotation
                  JOINT rRing1
                  {
                    OFFSET -5.0395 -0.09 2.4971
                    CHANNELS 3 Zrotation Xrotation Yrotation
                    JOINT rRing2
                    {
                      OFFSET -3.7921 -1.552 1.4806
                      CHANNELS 3 Zrotation Xrotation Yrotation
                      JOINT rRing2_End
                      {
                        OFFSET -1.4655 -1.808 0.9609
                        CHANNELS 3 Zrotation Xrotation Yrotation
                        End Site
                        {
                          OFFSET -0.0147 -0.0181 0.0096
                        }
                      }
                    }
                  }
                  JOINT rPinky1
                  {
                    OFFSET -4.9141 -1.269 0.3592
                    CHANNELS 3 Zrotation Xrotation Yrotation
                    JOINT rPinky2
                    {
                      OFFSET -3.1477 -1.685 0.8462
                      CHANNELS 3 Zrotation Xrotation Yrotation
                      JOINT rPinky2_End
                      {
                        OFFSET -0.8055 -1.585 0.7955
                        CHANNELS 3 Zrotation Xrotation Yrotation
                        End Site
                        {
                          OFFSET -0.0081 -0.0158 0.008
                        }
                      }
                    }
                  }
                }
              }
            }
          }
        }
      }
    }
  }
  JOINT lThigh
  {
    OFFSET 8.367 -8.2066 0.5982
    CHANNELS 3 Zrotation Xrotation Yrotation
    JOINT lShin
    {
      OFFSET 2.1923 -43.463 -0.4932
      CHANNELS 3 Zrotation Xrotation Yrotation
      JOINT lFoot
      {
        OFFSET 0.7333 -45.8593 -2.6451
        CHANNELS 3 Zrotation Xrotation Yrotation
        End Site
        {
          OFFSET 2.6618 -4.2699 12.3931
        }
      }
    }
  }
  JOINT rThigh
  {
    OFFSET -8.367 -8.2066 0.5982
    CHANNELS 3 Zrotation Xrotation Yrotation
    JOINT rShin
    {
      OFFSET -2.1923 -43.463 -0.4931
      CHANNELS 3 Zrotation Xrotation Yrotation
      JOINT rFoot
      {
        OFFSET -0.7333 -45.8593 -2.6451
        CHANNELS 3 Zrotation Xrotation Yrotation
        End Site
        {
          OFFSET -2.6618 -4.2699 12.3931
        }
      }
    }
  }
}
MOTION
Frames:	5
Frame Time:	0.0333333
42.4338 28.447 29.0448 179.997 58.9947 3.2456e-011 -0.0295674 9.08997 -0.0834105 -0.0464275 18.18 -0.165184 -0.0464276 18.18 -0.165184 2.88739 -0.000701258 -0.562285 -4.48721e-007 0.0604829 -1.90305e-007 -12.1076 -4.17877 -4.06495 -46.8611 55.1232 6.38039 16.6313 32.8835 -4.95881 -0.132547 -8.19404 0.270184 1.35174e-014 2.0276e-014 3.18055e-015 1.05493e-007 1.13302e-007 3.45853e-007 -3.97569e-016 1.59028e-015 -0 -1.59028e-015 3.97569e-016 1.27222e-014 1.74931e-014 2.06736e-014 1.59028e-014 1.05493e-007 1.13302e-007 3.45853e-007 -2.38542e-015 1.59028e-015 -0 1.74931e-014 2.06736e-014 1.59028e-014 1.05493e-007 1.13302e-007 3.45853e-007 -2.38542e-015 1.59028e-015 -0 -1.59028e-015 3.97569e-016 1.27222e-014 1.74931e-014 2.06736e-014 1.59028e-014 1.05493e-007 1.13302e-007 3.45853e-007 -2.38542e-015 1.59028e-015 -0 1.74931e-014 2.06736e-014 1.59028e-014 1.05493e-007 1.13302e-007 3.45853e-007 -2.38542e-015 1.59028e-015 -0 6.25462 -5.42555 3.24958 55.3634 55.0124 -5.96228 -19.0918 32.1649 9.46756 0.0507994 -5.57684 -6.44116 8.82781e-032 1.59028e-015 -3.18055e-015 -4.41391e-032 7.95139e-016 3.18055e-015 0 7.95139e-016 -0 4.41391e-032 7.95139e-016 -3.18055e-015 7.95139e-016 0 1.59028e-014 -7.95139e-016 7.95139e-016 -0 -8.82781e-032 7.95139e-016 6.36111e-015 7.95139e-016 0 1.59028e-014 -7.95139e-016 7.95139e-016 -0 -8.82781e-032 7.95139e-016 6.36111e-015 4.41391e-032 7.95139e-016 -3.18055e-015 7.95139e-016 0 1.59028e-014 -7.95139e-016 7.95139e-016 -0 -8.82781e-032 7.95139e-016 6.36111e-015 7.95139e-016 0 1.59028e-014 -7.95139e-016 7.95139e-016 -0 -8.82781e-032 7.95139e-016 6.36111e-015 55.7303 -75.1592 86.571 1.58069 32.7509 -41.5498 21.8954 1.77241 4.52037 -51.3882 -76.9923 -82.525 -1.57201 32.7294 41.5972 -24.4937 1.94229 -5.61051 
42.4272 28.4467 29.0465 179.997 58.9947 3.2456e-011 -0.0293842 9.03477 -0.0834891 -0.0461185 18.0696 -0.165366 -0.0461185 18.0696 -0.165366 3.03435 0.350855 -0.599867 -1.45011e-006 0.0601783 -3.41321e-007 -12.3879 -4.01847 -3.9584 -46.6545 55.1263 6.39264 16.6312 32.8835 -4.95879 -0.14684 -8.05738 0.189119 -7.95139e-016 -1.19271e-015 -6.36111e-015 1.19271e-015 -1.19271e-015 3.18055e-015 1.19271e-015 -1.98785e-015 -3.18055e-015 -7.95139e-016 -7.95139e-016 -6.36111e-015 3.57812e-015 0 1.90833e-014 7.95139e-016 -3.97569e-016 -3.18055e-015 3.97569e-016 0 -0 3.57812e-015 0 1.90833e-014 7.95139e-016 -3.97569e-016 -3.18055e-015 3.97569e-016 0 -0 -7.95139e-016 -7.95139e-016 -6.36111e-015 3.57812e-015 0 1.90833e-014 7.95139e-016 -3.97569e-016 -3.18055e-015 3.97569e-016 0 -0 3.57812e-015 0 1.90833e-014 7.95139e-016 -3.97569e-016 -3.18055e-015 3.97569e-016 0 -0 6.50242 -5.23603 3.15115 55.1794 55.0132 -5.9669 -19.0918 32.1649 9.46754 0.0555291 -5.44817 -6.36196 7.95139e-016 -2.3059e-014 -9.54166e-015 -0 -2.46493e-014 -0 1.59028e-015 -2.46493e-014 3.18055e-015 7.95139e-016 1.59028e-015 -9.54166e-015 7.95139e-016 -2.46493e-014 -3.18055e-015 7.95139e-016 -2.38542e-014 3.18055e-015 7.95139e-016 -2.54444e-014 -6.36111e-015 7.95139e-016 -2.46493e-014 -3.18055e-015 7.95139e-016 -2.38542e-014 3.18055e-015 7.95139e-016 -2.54444e-014 -6.36111e-015 7.95139e-016 1.59028e-015 -9.54166e-015 7.95139e-016 -2.46493e-014 -3.18055e-015 7.95139e-016 -2.38542e-014 3.18055e-015 7.95139e-016 -2.54444e-014 -6.36111e-015 7.95139e-016 -2.46493e-014 -3.18055e-015 7.95139e-016 -2.38542e-014 3.18055e-015 7.95139e-016 -2.54444e-014 -6.36111e-015 55.7446 -75.1489 86.5854 1.58089 32.7533 -41.5484 21.9016 1.77133 4.5201 -51.6695 -76.8865 -82.7911 -1.57247 32.7336 41.5926 -24.3642 1.93011 -5.55367 
42.4206 28.4465 29.0481 179.997 58.9947 3.2456e-011 -0.0292048 8.97958 -0.0835645 -0.0458181 17.9592 -0.165541 -0.0458181 17.9592 -0.165541 3.18165 0.701495 -0.638369 6.86503e-007 0.0598834 -3.15216e-007 -12.6683 -3.85861 -3.85108 -46.4477 55.1294 6.40487 16.6313 32.8835 -4.95879 -0.160931 -7.9207 0.108069 1.95986e-007 -8.19036e-008 3.23522e-007 -1.32417e-031 -1.19271e-015 -6.36111e-015 -3.97569e-016 -1.98785e-015 -1.59028e-014 1.19271e-015 0 6.36111e-015 1.95986e-007 -8.19036e-008 3.23522e-007 -7.95139e-016 -1.19271e-015 -1.59028e-014 3.97569e-016 -1.98785e-015 -1.90833e-014 1.95986e-007 -8.19036e-008 3.23522e-007 -7.95139e-016 -1.19271e-015 -1.59028e-014 3.97569e-016 -1.98785e-015 -1.90833e-014 1.19271e-015 0 6.36111e-015 1.95986e-007 -8.19036e-008 3.23522e-007 -7.95139e-016 -1.19271e-015 -1.59028e-014 3.97569e-016 -1.98785e-015 -1.90833e-014 1.95986e-007 -8.19036e-008 3.23522e-007 -7.95139e-016 -1.19271e-015 -1.59028e-014 3.97569e-016 -1.98785e-015 -1.90833e-014 6.75047 -5.04694 3.05192 54.9955 55.0141 -5.97149 -19.0918 32.1649 9.46756 0.0600801 -5.31949 -6.28278 6.48319e-008 -7.8035e-008 -2.55611e-006 2.14573e-008 3.11839e-007 -3.25875e-006 1.59028e-015 2.38542e-015 9.54166e-015 0 0 -0 6.48319e-008 -7.8035e-008 -2.55611e-006 2.14573e-008 3.11839e-007 -3.25875e-006 7.95139e-016 7.95139e-016 1.27222e-014 6.48319e-008 -7.8035e-008 -2.55611e-006 2.14573e-008 3.11839e-007 -3.25875e-006 7.95139e-016 7.95139e-016 1.27222e-014 0 0 -0 6.48319e-008 -7.8035e-008 -2.55611e-006 2.14573e-008 3.11839e-007 -3.25875e-006 7.95139e-016 7.95139e-016 1.27222e-014 6.48319e-008 -7.8035e-008 -2.55611e-006 2.14573e-008 3.11839e-007 -3.25875e-006 7.95139e-016 7.95139e-016 1.27222e-014 55.7591 -75.1386 86.6 1.58111 32.7557 -41.5471 21.9078 1.77017 4.51984 -51.9462 -76.7803 -83.0526 -1.57295 32.7378 41.588 -24.2347 1.91812 -5.49679 
42.4139 28.4462 29.0498 179.997 58.9947 3.2456e-011 -0.0290216 8.92448 -0.0836421 -0.0455101 17.8488 -0.16572 -0.0455101 17.8488 -0.16572 3.32919 1.05379 -0.677795 -3.76359e-007 0.059561 -2.63283e-007 -12.949 -3.69938 -3.74302 -46.241 55.1325 6.41707 16.6313 32.8835 -4.95878 -0.174826 -7.784 0.0270749 3.85183e-007 1.83047e-007 -1.07178e-008 2.69289e-007 7.09063e-007 5.83608e-006 -1.83047e-007 3.85183e-007 -1.56587e-008 -6.62086e-032 1.19271e-015 3.18055e-015 3.85183e-007 1.83047e-007 -1.07178e-008 2.69289e-007 7.09063e-007 5.83608e-006 -1.83047e-007 3.85183e-007 -1.56587e-008 3.85183e-007 1.83047e-007 -1.07178e-008 2.69289e-007 7.09063e-007 5.83608e-006 -1.83047e-007 3.85183e-007 -1.56587e-008 -6.62086e-032 1.19271e-015 3.18055e-015 3.85183e-007 1.83047e-007 -1.07178e-008 2.69289e-007 7.09063e-007 5.83608e-006 -1.83047e-007 3.85183e-007 -1.56587e-008 3.85183e-007 1.83047e-007 -1.07178e-008 2.69289e-007 7.09063e-007 5.83608e-006 -1.83047e-007 3.85183e-007 -1.56587e-008 6.99877 -4.85832 2.95191 54.8115 55.015 -5.97614 -19.0918 32.1649 9.46755 0.0644494 -5.19082 -6.2036 1.76556e-031 1.59028e-015 -6.36111e-015 -7.95139e-016 2.38542e-015 -6.36111e-015 7.95139e-016 1.59028e-015 -6.36111e-015 8.82781e-032 7.95139e-016 -6.36111e-015 7.95139e-016 -7.95139e-016 3.18055e-015 7.95139e-016 3.18055e-015 -6.36111e-015 -7.95139e-016 7.95139e-016 -3.18055e-015 7.95139e-016 -7.95139e-016 3.18055e-015 7.95139e-016 3.18055e-015 -6.36111e-015 -7.95139e-016 7.95139e-016 -3.18055e-015 8.82781e-032 7.95139e-016 -6.36111e-015 7.95139e-016 -7.95139e-016 3.18055e-015 7.95139e-016 3.18055e-015 -6.36111e-015 -7.95139e-016 7.95139e-016 -3.18055e-015 7.95139e-016 -7.95139e-016 3.18055e-015 7.95139e-016 3.18055e-015 -6.36111e-015 -7.95139e-016 7.95139e-016 -3.18055e-015 55.7734 -75.1282 86.6144 1.58131 32.758 -41.5457 21.9139 1.76907 4.51957 -52.2189 -76.6738 -83.3102 -1.5734 32.7421 41.5833 -24.1052 1.90618 -5.43988 
42.4073 28.446 29.0515 179.997 58.9947 3.2456e-011 -0.0288353 8.86922 -0.083722 -0.0451953 17.7385 -0.165904 -0.0451953 17.7385 -0.165904 3.47717 1.40422 -0.718146 2.40021e-007 0.0592705 -1.41731e-007 -13.23 -3.54063 -3.63419 -46.0343 55.1357 6.42927 16.6313 32.8835 -4.9588 -0.188519 -7.64728 -0.0538062 -1.95805e-007 8.37515e-008 -2.92997e-007 -3.97569e-016 -3.97569e-016 -1.90833e-014 1.95805e-007 -8.37515e-008 2.92997e-007 -1.19271e-015 3.97569e-016 -0 -1.95805e-007 8.37515e-008 -2.92997e-007 -1.59028e-015 0 -1.90833e-014 1.95805e-007 -8.37515e-008 2.92997e-007 -1.95805e-007 8.37515e-008 -2.92997e-007 -1.59028e-015 0 -1.90833e-014 1.95805e-007 -8.37515e-008 2.92997e-007 -1.19271e-015 3.97569e-016 -0 -1.95805e-007 8.37515e-008 -2.92997e-007 -1.59028e-015 0 -1.90833e-014 1.95805e-007 -8.37515e-008 2.92997e-007 -1.95805e-007 8.37515e-008 -2.92997e-007 -1.59028e-015 0 -1.90833e-014 1.95805e-007 -8.37515e-008 2.92997e-007 7.24731 -4.67014 2.85111 54.6276 55.016 -5.98075 -19.0918 32.1649 9.46756 0.0686382 -5.06213 -6.1245 7.95139e-016 -2.62396e-014 -3.18055e-015 -4.23735e-030 -2.54444e-014 -9.54166e-015 1.59028e-015 -2.46493e-014 -0 7.95139e-016 -7.95139e-016 -3.18055e-015 1.59028e-015 -2.54444e-014 -6.36111e-015 1.41245e-030 -2.54444e-014 3.18055e-015 1.59028e-015 -2.54444e-014 -3.18055e-015 1.59028e-015 -2.54444e-014 -6.36111e-015 1.41245e-030 -2.54444e-014 3.18055e-015 1.59028e-015 -2.54444e-014 -3.18055e-015 7.95139e-016 -7.95139e-016 -3.18055e-015 1.59028e-015 -2.54444e-014 -6.36111e-015 1.41245e-030 -2.54444e-014 3.18055e-015 1.59028e-015 -2.54444e-014 -3.18055e-015 1.59028e-015 -2.54444e-014 -6.36111e-015 1.41245e-030 -2.54444e-014 3.18055e-015 1.59028e-015 -2.54444e-014 -3.18055e-015 55.7879 -75.1179 86.629 1.58153 32.7604 -41.5443 21.9201 1.76794 4.5193 -52.4873 -76.567 -83.5635 -1.57387 32.7463 41.5787 -23.9757 1.89442 -5.38295 
